<svg width="2684" height="2530" viewBox="0 0 2684 2530" fill="none" xmlns="http://www.w3.org/2000/svg">
<g id="BRASILHEX">
<path id="AL" d="M2586.55 1098.29L2683.42 935.034L2586.55 771.773L2392.8 771.773L2295.93 935.034L2392.8 1098.29L2586.55 1098.29Z" stroke="black"/>
<path id="SE" d="M2253.77 1309.61L2350.64 1146.35L2253.77 983.089L2060.01 983.089L1963.15 1146.35L2060.01 1309.61L2253.77 1309.61Z" stroke="black"/>
<path id="ES" d="M2253.77 1703.9L2350.64 1540.63L2253.77 1377.37L2060.01 1377.37L1963.15 1540.63L2060.01 1703.9L2253.77 1703.9Z" stroke="black"/>
<path id="PB" d="M2253.77 915.328L2350.64 752.067L2253.77 588.806L2060.01 588.806L1963.15 752.067L2060.01 915.328L2253.77 915.328Z" stroke="black"/>
<path id="PR" d="M1932.47 2290.85L2029.34 2127.59L1932.47 1964.33L1738.71 1964.33L1641.85 2127.59L1738.71 2290.85L1932.47 2290.85Z" stroke="black"/>
<path id="RJ" d="M1932.47 1896.57L2029.34 1733.31L1932.47 1570.05L1738.71 1570.05L1641.85 1733.31L1738.71 1896.57L1932.47 1896.57Z" stroke="black"/>
<path id="PE" d="M1932.47 1108L2029.34 944.74L1932.47 781.479L1738.71 781.479L1641.85 944.74L1738.71 1108L1932.47 1108Z" stroke="black"/>
<path id="RN" d="M1932.47 713.718L2029.34 550.456L1932.47 387.195L1738.71 387.195L1641.85 550.456L1738.71 713.718L1932.47 713.718Z" stroke="black"/>
<path id="BA" d="M1932.47 1502.28L2029.34 1339.02L1932.47 1175.76L1738.71 1175.76L1641.85 1339.02L1738.71 1502.28L1932.47 1502.28Z" stroke="black"/>
<path id="PI" d="M1599.58 1320.88L1696.45 1157.62L1599.58 994.355L1405.82 994.355L1308.96 1157.62L1405.82 1320.88L1599.58 1320.88Z" stroke="black"/>
<path id="CE" d="M1599.58 926.593L1696.45 763.332L1599.58 600.071L1405.82 600.071L1308.96 763.332L1405.82 926.593L1599.58 926.593Z" stroke="black"/>
<path id="MG" d="M1599.58 1715.16L1696.45 1551.9L1599.58 1388.64L1405.82 1388.64L1308.96 1551.9L1405.82 1715.16L1599.58 1715.16Z" stroke="black"/>
<path id="SP" d="M1599.58 2109.44L1696.45 1946.18L1599.58 1782.92L1405.82 1782.92L1308.96 1946.18L1405.82 2109.44L1599.58 2109.44Z" stroke="black"/>
<path id="RS" d="M1599.58 2503.73L1696.45 2340.47L1599.58 2177.21L1405.82 2177.21L1308.96 2340.47L1405.82 2503.73L1599.58 2503.73Z" stroke="black"/>
<path id="MS" d="M1272.33 1931.04L1369.2 1767.78L1272.33 1604.52L1078.57 1604.52L981.708 1767.78L1078.57 1931.04L1272.33 1931.04Z" stroke="black"/>
<path id="GO" d="M1272.33 1536.37L1369.2 1373.11L1272.33 1209.85L1078.57 1209.85L981.708 1373.11L1078.57 1536.37L1272.33 1536.37Z" stroke="black"/>
<path id="DF" d="M1272.57 1141.7L1369.44 978.437L1272.57 815.176L1078.82 815.176L981.952 978.437L1078.82 1141.7L1272.57 1141.7Z" stroke="black"/>
<path id="MA" d="M1278.63 747.027L1375.5 583.766L1278.63 420.505L1084.87 420.505L988.009 583.766L1084.87 747.027L1278.63 747.027Z" stroke="black"/>
<path id="AP" d="M1272.57 352.356L1369.44 189.095L1272.57 25.8338L1078.82 25.8338L981.952 189.095L1078.82 352.356L1272.57 352.356Z" stroke="black"/>
<path id="SC" d="M1272.33 2325.38L1369.2 2162.12L1272.33 1998.86L1078.57 1998.86L981.708 2162.12L1078.57 2325.38L1272.33 2325.38Z" stroke="black"/>
<path id="TO" d="M945.392 935.445L1042.26 772.184L945.392 608.922L751.636 608.922L654.77 772.184L751.636 935.445L945.392 935.445Z" stroke="black"/>
<path id="MT" d="M945.392 1329.73L1042.26 1166.47L945.392 1003.21L751.636 1003.21L654.77 1166.47L751.636 1329.73L945.392 1329.73Z" stroke="black"/>
<path id="PA" d="M945.392 541.162L1042.26 377.9L945.392 214.639L751.636 214.639L654.77 377.9L751.636 541.162L945.392 541.162Z" stroke="black"/>
<path id="RO" d="M617.896 1140.92L714.762 977.662L617.896 814.401L424.14 814.401L327.274 977.662L424.14 1140.92L617.896 1140.92Z" stroke="black"/>
<path id="AM" d="M617.896 746.64L714.762 583.379L617.896 420.118L424.14 420.118L327.274 583.379L424.14 746.64L617.896 746.64Z" stroke="black"/>
<path id="RR" d="M617.896 352.356L714.762 189.095L617.896 25.8338L424.14 25.8338L327.274 189.095L424.14 352.356L617.896 352.356Z" stroke="black"/>
<path id="AC" d="M291.203 944.296L388.069 781.035L291.203 617.774L97.4469 617.774L0.580894 781.035L97.447 944.296L291.203 944.296Z" stroke="black"/>
</g>
</svg>
